<svg enable-background="new 0 0 32 32" version="1.1" viewBox="0 0 32 32" x="0px" xml:space="preserve" xmlns:xlink="http://www.w3.org/1999/xlink" xmlns="http://www.w3.org/2000/svg" y="0px">
  <g><path d="M24,6.9l2.4-2.4C23,1.4,18.5,0,13.9,0.7l2.6,13.8L24,6.9z"/><path d="M27.5,5.6L21,12.1l-3.8,3.8l2.5,1.5l10,5.9c1.2-2.2,1.8-4.7,1.8-7.2C31.5,12.1,30.1,8.4,27.5,5.6z"/><path d="M15.5,16.6C15.5,16.5,15.4,16.5,15.5,16.6c-0.1-0.1-0.1-0.1-0.1-0.1c0,0,0-0.1,0-0.1c0-0.1-0.1-0.1-0.1-0.2L12.4,0.9   C5.4,2.6,0.5,8.8,0.5,16c0,8.5,7,15.5,15.5,15.5c5.2,0,10.1-2.7,12.9-7l-13.3-7.9C15.6,16.6,15.5,16.6,15.5,16.6z"/></g>
</svg>
