<svg enable-background="new 0 0 100 100" version="1.1" viewBox="0 0 100 100" x="0px" xml:space="preserve" xmlns:xlink="http://www.w3.org/1999/xlink" xmlns="http://www.w3.org/2000/svg" y="0px"><path
  d="M50.721,31.434c1.874,0,3.318,0.71,4.333,2.129c1.014,1.419,1.521,3.445,1.521,6.082h12.849  c0-4.813-1.324-8.788-3.974-11.918c-2.646-3.128-6.291-5.037-10.928-5.721v-8.174h-6.044v8.021  c-4.813,0.458-8.666,2.072-11.554,4.849c-2.891,2.773-4.333,6.306-4.333,10.584c0,2.563,0.401,4.742,1.215,6.539  c0.812,1.803,1.978,3.384,3.497,4.754c1.521,1.365,3.333,2.569,5.436,3.606c2.104,1.04,4.396,2.063,6.879,3.081  c2.483,1.013,4.222,2.09,5.209,3.229c0.988,1.144,1.482,2.715,1.482,4.715c0,1.803-0.494,3.213-1.482,4.237  c-0.987,1.025-2.345,1.543-4.065,1.543c-2.356,0-4.177-0.757-5.455-2.266c-1.28-1.508-1.92-3.707-1.92-6.594h-12.81  c0,5.242,1.476,9.472,4.429,12.676c2.952,3.205,7.188,5.1,12.715,5.682v7.681h6.043v-7.642c4.737-0.459,8.481-2.053,11.231-4.792  c2.75-2.73,4.123-6.27,4.123-10.604c0-2.562-0.431-4.752-1.291-6.575c-0.86-1.824-2.054-3.421-3.574-4.789  c-1.521-1.369-3.323-2.59-5.415-3.667c-2.093-1.077-4.313-2.118-6.671-3.118c-2.356-1-4.065-2.053-5.131-3.153  c-1.063-1.104-1.598-2.591-1.598-4.469c0-1.847,0.462-3.298,1.387-4.351C47.748,31.961,49.049,31.434,50.721,31.434z"/>
</svg>
