<?xml version="1.0" encoding="utf-8"?>
<!-- Generator: Adobe Illustrator 16.0.0, SVG Export Plug-In . SVG Version: 6.00 Build 0)  -->
<!DOCTYPE svg PUBLIC "-//W3C//DTD SVG 1.1//EN" "http://www.w3.org/Graphics/SVG/1.1/DTD/svg11.dtd">
<svg version="1.1" xmlns="http://www.w3.org/2000/svg" xmlns:xlink="http://www.w3.org/1999/xlink" x="0px" y="0px"
	 width="748.146px" height="240.913px" viewBox="0 0 748.146 240.913" enable-background="new 0 0 748.146 240.913"
	 xml:space="preserve">
<g id="Layer_2">
</g>
<g id="Layer_1">
	<g>
		<path fill="none" stroke="#FFFFFF" stroke-width="3" stroke-linecap="round" stroke-linejoin="round" stroke-miterlimit="10" d="
			M376.138,232.981c2,3.555,4.002,0.037,6-0.01c2.656-0.061,4.863,0.146,5.258-3.965c0.287-2.996,3.58-3.803,6.758-2.564
			c1.768,0.689,3.424,1.379,4.689,3.133c-2.633,1.682-6.705,1.344-7.582,4.936c-0.42,1.717-1.188,4.201,1.674,5.402
			c3.438-2.924,7.295-4.293,12.25-2.566c3.07,1.068,6.482,0.094,7.889-3.391c1.455-3.609,4.281-4.498,7.564-4.424
			c4.33,0.1,8.088-1.367,12.062-2.889c4.74-1.816,9.785-3.342,14.57,1.197c2.041,1.938,5.062,0.652,6.867-1.859
			c0.836-1.164,1.641-2.354,2.506-3.496c3.221-4.258,7.486-5.291,12.494-4.004c13.336,3.424,25.869,0.688,37.99-5.023
			c1.412-0.664,3.381-1.34,3.891-2.527c2.445-5.693,7.127-5.748,12.121-5.479c0.822,0.045,1.814,0.447,2.873-0.953
			c0.227-3.236,0.754-6.953,2.094-10.529c1.875-5.012,4.457-7.521,9.527-7.365c3.688,0.113,5.066-1.639,5.459-4.629
			c0.682-5.195,2.164-10.131,4.021-15.004c1.621-4.25,3.797-7.662,9.744-7.514c-1.641-8.658,1.436-14.766,9.133-19.707
			c7.047-4.521,13.719-2.076,20.672-0.868c0.703-4.003,1.715-7.006,4.496-8.87c2.389-1.604,5.375-1.858,5.801,1.491
			c0.555,4.339,3.326,2.431,4.598,1.813c1.869-0.907,3.811-2.607,1.623-5.37c-1.947-2.459-3.535-5.204-5.297-7.847
			c4.885-2.288,6.848-1.424,12.754,5.38c1.334-1.333,2.447-3.167,4.055-3.874c2.055-0.903,5.02-1.264,3.779-4.051
			c-1.307-2.933-1.721-7.146-6.332-7.589c-4.199-0.403-6.047-3.56-6.893-7.011c-0.83-3.378-0.975-6.969-1.059-10.475
			c-0.105-4.362,0.139-8.754-1.08-12.99c-1.297-4.51,0.311-8.357,2.598-11.965c0.936-1.476,1.885-2.87,2.447-4.538
			c0.861-2.55,0.801-4.762-2.023-5.988c-1.838-0.798-3.684,0.544-5.062,3.641c-4.678-1.892-9.035,0.188-13.416,1.393
			c-5.453,1.501-10.615,2.262-14.486-3.071c-1.379-1.902-3.234-1.445-5.027-1.47c-2.842-0.039-5.686-0.01-8.455-0.01
			c-0.803-8.905-5.514-9.209-14.717-2.372c-1.613-2.699-0.035-6.06-2.248-8.672c-2.115-0.487-3.846,1.597-6.051,2.174
			c-1.555-7.022-3.086-9.232-9.535-9.479c-9.713-0.371-18.869-2.679-28.008-5.607c-5.383-1.725-10.959-1.029-16.488-0.566
			c-3.26,0.273-6.496,0.061-9.73-1.913c-1.121,4.601-3.848,4.363-7.779,4.157c-9.855-0.517-18.492-4.612-27.479-7.753
			c-3.131-1.095-6.311-0.93-9.51-0.974c-2.385-0.033-3.701,1.135-3.453,3.499c0.207,1.973,1.996,1.958,3.453,1.981
			c2.928,0.046,5.719,0.529,8.523,1.453c2.43,0.8,5.035,1.348,4.396,4.555c-0.604,3.02-2.568,5.136-5.92,5.521
			c-7.568,0.87-12.717-2.285-15.508-9.501c-0.537-1.387-1.18-2.733-1.807-4.17c-3.443,3.225-7.564,3.444-11.686,3.667
			c-2.115,0.115-3.877-1.16-2.869-2.925c2.459-4.303-0.969-4.308-3.139-4.465c-3.471-0.251-6.992,0.054-10.5,0.268
			c-6.807,0.417-13.658,0.135-20.492,0.115c-2.613-0.008-4.977-1.108-6.953-2.558c-3.775-2.771-7.25-2.89-12.092-2.319
			c-10.232,1.208-20.959,1.58-30.399-4.208c-1.967-1.206-3.841-2.091-6.18-2.524c-6.194,10.903-16.432,10.776-26.87,9.56
			c-7.852-0.915-15.79-1.715-23.011-5.437c-1.743-0.898-3.711-0.738-5.487-0.454c-12.44,1.989-25.085-0.15-37.509,1.945
			c-5.962,1.006-11.861,2.366-18.002,2.05c-4.731-0.244-9.044-0.961-13.102-3.906c-2.438-1.77-5.291-3.572-8.905-3.248
			c-2.503,0.225-4.354,0.608-5.527,3.087c-1.961,4.141-5.68,5.453-9.406,3.411c-11.684-6.404-23.867-4.535-36.05-2.834
			c-5.354,0.748-10.673,0.466-16.008,0.399c-2.652-0.034-4.756-1.431-6.516-3.445c-4.225-4.836-9.371-6.303-15.487-4.022
			c-2.979,1.111-5.678,0.365-8.526-0.929C76.438,8.013,69.4,7.545,62.124,8.346c-2.209,0.243-4.589,1.251-5.292,2.269
			c-3.459,5.01-8.6,7.802-13.079,11.505c-2.956,2.444-4.402,6.284-2.137,10.373c0.322,0.581,0.277,1.353,0.533,1.983
			c4.788,11.8-0.138,19.005-13.012,19.005c-0.333,0-0.667,0-0.948,0c-0.192,0.348-0.51,0.665-0.532,1.001
			c-0.583,8.824-0.575,8.835-9.021,10.49c-1.989,0.39-4.009,0.621-5.997,1.019c-5.947,1.191-7.774,4.151-5.983,9.984
			c2.668,8.69,6.359,16.563,15.455,20.565c4.984,2.192,7.828,6.605,10.035,11.437c2.86,6.259,5.652,12.54,9.92,18.059
			c1.137,1.47,1.396,3.615,2.073,5.444c1.297,3.5,0.112,5.979-3.513,6.413c-4.535,0.543-5.646,3.256-5.473,7.087
			c0.346,7.667-0.938,15.403,0.981,23.36c-4.858,0.814-4.188,4.662-3.96,8.139c0.219,3.352,2.524,6.839-2.407,9.268
			c-1.287,0.635-1.321,4.249-4.131,4.734"/>
		
			<path fill-rule="evenodd" clip-rule="evenodd" fill="none" stroke="#FFFFFF" stroke-width="3" stroke-linecap="round" stroke-linejoin="round" stroke-miterlimit="10" d="
			M376.138,234.981c-3.381,2.193-6.289,2.457-7.996-2.002c-0.711-1.857-2.062-2.406-4-2.547c-5.595-0.408-10.469-1.998-13.596-7.398
			c-2.053-3.547-6.158-1.811-8.868-1.326c-5.657,1.012-10.547,3.885-12.07,10.266c-0.219,0.918-0.838,1.74-1.23,2.523
			c-6.52-0.346-10.841-3.676-13.699-9.037c-0.823-1.543-1.674-2.15-3.49-2.66c-2.79-0.783-5.528-2.045-8.122-3.707
			c-5.739-3.682-11.88-4.73-18.969-3.311c-10.435,2.092-20.889,4.223-31.43,5.887c-6.916,1.092-12.593-0.631-17.988-4.25
			c-2.829-1.898-6-2.777-9.083-3.816c-1.825-0.615-4.639-0.811-5.847,0.955c-2.161,3.162-4.712,2.346-7.623,2.016
			c-2.356-0.27-4.673-0.814-6.997-1c-3.398-0.271-6.546-0.25-4.773-5.215c-8.45-1.805-15.909-0.676-23.774,2.404
			c4.342,3.25-1.196,6.314,1.118,10.283c-12.242-0.379-23.114,2.047-34.073,3.877c-2.204,0.367-4.994,0.615-6.405-1.498
			c-2.193-3.287-4.695-4.664-8.609-3.527c-0.833,0.242-1.976-0.582-2.976-0.916"/>
		
			<path fill-rule="evenodd" clip-rule="evenodd" fill="none" stroke="#FFFFFF" stroke-width="3" stroke-linecap="round" stroke-linejoin="round" stroke-miterlimit="10" d="
			M23.639,190.481c1.665,1.836,3.522,3.346,5.995,4.019c2.31,0.628,4.576,1.413,4.504,4.481c-0.062,2.68-1.489,3.979-3.959,5.09
			c-6.673,2.998-6.441,9.52-6.959,15.418c-0.201,2.295,0.504,4.67,0.799,7.027c1.526-0.447,2.674,1.201,4.467,0
			c0.052,8.486,5.165,6.033,9.714,5.271c-0.073-3.822-4.075-4.486-5.168-7.557c4.366-1.863,8.777-1.848,13.09-0.205
			c4.752,1.811,9.641,1.314,14.516,1.488c3.018,0.107,4.857-1.064,5.501-4.033c1.995,0.521,4.018,1.057,5.958,1.639
			c3.578,1.074,6.204-0.119,6.838-3.18c0.581-2.799,1.96-2.605,3.701-2.43c4.62,0.469,10.486-2.17,12.616,4.938
			c0.128,0.428,1.978,0.713,2.872,0.475c4.651-1.232,9.919-4.135,10.015,4.559c3.582,0.648,3.99,4.928,7.434,6.182
			c3.144,1.145,5.739,0.176,8.563-0.201c1.357-0.182,2.685-0.58,3.982-0.871c0.48-2.65-2.534-3.109-2.992-5.107
			c1.513-0.336,3.013-0.668,4.513-1.002"/>
		
			<path fill-rule="evenodd" clip-rule="evenodd" fill="none" stroke="#FFFFFF" stroke-width="3" stroke-linecap="round" stroke-linejoin="round" stroke-miterlimit="10" d="
			M645.638,145.981c0.926,5.617-0.506,7.773-6.002,8.992c-0.988,0.22-2.289,0-2.951,0.562c-4.344,3.701-9.299,3.885-14.553,2.979
			c-0.893-0.154-2.098-0.458-2.727,1.805c3.645,3.097,6.568,7.482,10.293,11.101c4.105,3.988,9.418,2.323,13.312,0.315
			c5.121-2.641,9.955-1.891,15.127-1.926c3.807-0.025,7.67-0.146,11.496-0.395c1.527-0.099,0.793-2.039,1.1-3.188
			c4.225,2.646,4.312,2.686,5.84-0.775c0.355-0.809,0.799-0.483,1.059-0.437c4.336,0.788,8.127-2.704,12.51-1.545
			c3.154,0.835,6.457,1.952,7.996-2.489c3.557,0.451,6.189-3.725,9.893-2.162c0.678,1.356-1.039,1.637-0.898,2.803
			c1.506,1.648,3.096,0.724,4.49-0.166c5.51-3.511,11.037-6.679,18.027-5.019c2.486,0.591,4.512-0.384,5.596-3.205
			c-2.609-2.245-5.586-3.649-9.1-4.293c-10.996-2.017-21.793-5.022-32.998-6.052c-6.088-0.561-18.982,1.169-24.016,4.082
			c-0.447,0.258-1.023,0.549-1.488,0.48c-5.145-0.766-9.143,2.233-13.506,4.027c-2.74,1.127-5.467,1.828-8-0.496"/>
		
			<path fill-rule="evenodd" clip-rule="evenodd" fill="none" stroke="#FFFFFF" stroke-width="3" stroke-linecap="round" stroke-linejoin="round" stroke-miterlimit="10" d="
			M708.638,69.481c0.334,0.333,0.631,0.716,1.006,0.993c6.1,4.491,12.648,7.384,20.5,6.043c2.105-0.359,3.947,0.757,4.936,2.498
			c1.514,2.669,3.896,3.22,7.148,3.046c-0.367,1.753,0.705,3.928-0.631,4.25c-3.043,0.733-2.537,4.702-5.459,5.167
			c-0.162,0.026-0.389,0.074-0.492-0.007c-3.869-3.036-8.441-2.914-13.002-3.105c-0.664-0.028-1.922-1.04-2.023-2.383
			c-0.09-1.162-0.877-2.13-1.973-1.948c-4.482,0.746-6.059-2.109-6.953-5.568c-0.537-2.071-2.174-2.812-3.523-4.021
			c-1.697-1.519-2.76-3.298-0.033-4.964"/>
		
			<path fill-rule="evenodd" clip-rule="evenodd" fill="none" stroke="#FFFFFF" stroke-width="3" stroke-linecap="round" stroke-linejoin="round" stroke-miterlimit="10" d="
			M128.639,222.481c1.13,2.66,3.164,4.115,6,4.5"/>
	</g>
	<g>
		<path fill="none" stroke="#BABABA" stroke-width="3" stroke-linecap="round" stroke-linejoin="round" stroke-miterlimit="10" d="
			M371.138,225.981c2,3.555,4.002,0.037,6-0.01c2.656-0.061,4.863,0.146,5.258-3.965c0.287-2.996,3.58-3.803,6.758-2.564
			c1.768,0.689,3.424,1.379,4.689,3.133c-2.633,1.682-6.705,1.344-7.582,4.936c-0.42,1.717-1.188,4.201,1.674,5.402
			c3.438-2.924,7.295-4.293,12.25-2.566c3.07,1.068,6.482,0.094,7.889-3.391c1.455-3.609,4.281-4.498,7.564-4.424
			c4.33,0.1,8.088-1.367,12.062-2.889c4.74-1.816,9.785-3.342,14.57,1.197c2.041,1.938,5.062,0.652,6.867-1.859
			c0.836-1.164,1.641-2.354,2.506-3.496c3.221-4.258,7.486-5.291,12.494-4.004c13.336,3.424,25.869,0.688,37.99-5.023
			c1.412-0.664,3.381-1.34,3.891-2.527c2.445-5.693,7.127-5.748,12.121-5.479c0.822,0.045,1.814,0.447,2.873-0.953
			c0.227-3.236,0.754-6.953,2.094-10.529c1.875-5.012,4.457-7.521,9.527-7.365c3.688,0.113,5.066-1.639,5.459-4.629
			c0.682-5.195,2.164-10.131,4.021-15.004c1.621-4.25,3.797-7.662,9.744-7.514c-1.641-8.658,1.436-14.766,9.133-19.707
			c7.047-4.521,13.719-2.076,20.672-0.868c0.703-4.003,1.715-7.006,4.496-8.87c2.389-1.604,5.375-1.858,5.801,1.491
			c0.555,4.339,3.326,2.431,4.598,1.813c1.869-0.907,3.811-2.607,1.623-5.37c-1.947-2.459-3.535-5.204-5.297-7.847
			c4.885-2.288,6.848-1.424,12.754,5.38c1.334-1.333,2.447-3.167,4.055-3.874c2.055-0.903,5.02-1.264,3.779-4.051
			c-1.307-2.933-1.721-7.146-6.332-7.589c-4.199-0.403-6.047-3.56-6.893-7.011c-0.83-3.378-0.975-6.969-1.059-10.475
			c-0.105-4.362,0.139-8.754-1.08-12.99c-1.297-4.51,0.311-8.357,2.598-11.965c0.936-1.476,1.885-2.87,2.447-4.538
			c0.861-2.55,0.801-4.762-2.023-5.988c-1.838-0.798-3.684,0.544-5.062,3.641c-4.678-1.892-9.035,0.188-13.416,1.393
			c-5.453,1.501-10.615,2.262-14.486-3.071c-1.379-1.902-3.234-1.445-5.027-1.47c-2.842-0.039-5.686-0.01-8.455-0.01
			c-0.803-8.905-5.514-9.209-14.717-2.372c-1.613-2.699-0.035-6.06-2.248-8.672c-2.115-0.487-3.846,1.597-6.051,2.174
			c-1.555-7.022-3.086-9.232-9.535-9.479c-9.713-0.371-18.869-2.679-28.008-5.607c-5.383-1.725-10.959-1.029-16.488-0.566
			c-3.26,0.273-6.496,0.061-9.73-1.913c-1.121,4.601-3.848,4.363-7.779,4.157c-9.855-0.517-18.492-4.612-27.479-7.753
			c-3.131-1.095-6.311-0.93-9.51-0.974c-2.385-0.033-3.701,1.135-3.453,3.499c0.207,1.973,1.996,1.958,3.453,1.981
			c2.928,0.046,5.719,0.529,8.523,1.453c2.43,0.8,5.035,1.348,4.396,4.555c-0.604,3.02-2.568,5.136-5.92,5.521
			c-7.568,0.87-12.717-2.285-15.508-9.501c-0.537-1.387-1.18-2.733-1.807-4.17c-3.443,3.225-7.564,3.444-11.686,3.667
			c-2.115,0.115-3.877-1.16-2.869-2.925c2.459-4.303-0.969-4.308-3.139-4.465c-3.471-0.251-6.992,0.054-10.5,0.268
			c-6.807,0.417-13.658,0.135-20.492,0.115c-2.613-0.008-4.977-1.108-6.953-2.558c-3.775-2.771-7.25-2.89-12.092-2.319
			c-10.232,1.208-20.959,1.58-30.399-4.208c-1.967-1.206-3.841-2.091-6.18-2.524c-6.194,10.903-16.432,10.776-26.87,9.56
			c-7.852-0.915-15.79-1.715-23.011-5.437c-1.743-0.898-3.711-0.738-5.487-0.454c-12.44,1.989-25.085-0.15-37.509,1.945
			c-5.962,1.006-11.861,2.366-18.002,2.05c-4.731-0.244-9.044-0.961-13.102-3.906c-2.438-1.77-5.291-3.572-8.905-3.248
			c-2.503,0.225-4.354,0.608-5.527,3.087c-1.961,4.141-5.68,5.453-9.406,3.411c-11.684-6.404-23.867-4.535-36.05-2.834
			c-5.354,0.748-10.673,0.466-16.008,0.399c-2.652-0.034-4.756-1.431-6.516-3.445c-4.225-4.836-9.371-6.303-15.487-4.022
			c-2.979,1.111-5.678,0.365-8.526-0.929C71.438,1.013,64.4,0.545,57.124,1.346c-2.209,0.243-4.589,1.251-5.292,2.269
			c-3.459,5.01-8.6,7.802-13.079,11.505c-2.956,2.444-4.402,6.284-2.137,10.373c0.322,0.581,0.277,1.353,0.533,1.983
			c4.788,11.8-0.138,19.005-13.012,19.005c-0.333,0-0.667,0-0.948,0c-0.192,0.348-0.51,0.665-0.532,1.001
			c-0.583,8.824-0.575,8.835-9.021,10.49c-1.989,0.39-4.009,0.621-5.997,1.019c-5.947,1.191-7.774,4.151-5.983,9.984
			c2.668,8.69,6.359,16.563,15.455,20.565c4.984,2.192,7.828,6.605,10.035,11.437c2.86,6.259,5.652,12.54,9.92,18.059
			c1.137,1.47,1.396,3.615,2.073,5.444c1.297,3.5,0.112,5.979-3.513,6.413c-4.535,0.543-5.646,3.256-5.473,7.087
			c0.346,7.667-0.938,15.403,0.981,23.36c-4.858,0.814-4.188,4.662-3.96,8.139c0.219,3.352,2.524,6.839-2.407,9.268
			c-1.287,0.635-1.321,4.249-4.131,4.734"/>
		
			<path fill-rule="evenodd" clip-rule="evenodd" fill="none" stroke="#BABABA" stroke-width="3" stroke-linecap="round" stroke-linejoin="round" stroke-miterlimit="10" d="
			M371.138,227.981c-3.381,2.193-6.289,2.457-7.996-2.002c-0.711-1.857-2.062-2.406-4-2.547c-5.595-0.408-10.469-1.998-13.596-7.398
			c-2.053-3.547-6.158-1.811-8.868-1.326c-5.657,1.012-10.547,3.885-12.07,10.266c-0.219,0.918-0.838,1.74-1.23,2.523
			c-6.52-0.346-10.841-3.676-13.699-9.037c-0.823-1.543-1.674-2.15-3.49-2.66c-2.79-0.783-5.528-2.045-8.122-3.707
			c-5.739-3.682-11.88-4.73-18.969-3.311c-10.435,2.092-20.889,4.223-31.43,5.887c-6.916,1.092-12.593-0.631-17.988-4.25
			c-2.829-1.898-6-2.777-9.083-3.816c-1.825-0.615-4.639-0.811-5.847,0.955c-2.161,3.162-4.712,2.346-7.623,2.016
			c-2.356-0.27-4.673-0.814-6.997-1c-3.398-0.271-6.546-0.25-4.773-5.215c-8.45-1.805-15.909-0.676-23.774,2.404
			c4.342,3.25-1.196,6.314,1.118,10.283c-12.242-0.379-23.114,2.047-34.073,3.877c-2.204,0.367-4.994,0.615-6.405-1.498
			c-2.193-3.287-4.695-4.664-8.609-3.527c-0.833,0.242-1.976-0.582-2.976-0.916"/>
		
			<path fill-rule="evenodd" clip-rule="evenodd" fill="none" stroke="#BABABA" stroke-width="3" stroke-linecap="round" stroke-linejoin="round" stroke-miterlimit="10" d="
			M18.639,183.481c1.665,1.836,3.522,3.346,5.995,4.019c2.31,0.628,4.576,1.413,4.504,4.481c-0.062,2.68-1.489,3.979-3.959,5.09
			c-6.673,2.998-6.441,9.52-6.959,15.418c-0.201,2.295,0.504,4.67,0.799,7.027c1.526-0.447,2.674,1.201,4.467,0
			c0.052,8.486,5.165,6.033,9.714,5.271c-0.073-3.822-4.075-4.486-5.168-7.557c4.366-1.863,8.777-1.848,13.09-0.205
			c4.752,1.811,9.641,1.314,14.516,1.488c3.018,0.107,4.857-1.064,5.501-4.033c1.995,0.521,4.018,1.057,5.958,1.639
			c3.578,1.074,6.204-0.119,6.838-3.18c0.581-2.799,1.96-2.605,3.701-2.43c4.62,0.469,10.486-2.17,12.616,4.938
			c0.128,0.428,1.978,0.713,2.872,0.475c4.651-1.232,9.919-4.135,10.015,4.559c3.582,0.648,3.99,4.928,7.434,6.182
			c3.144,1.145,5.739,0.176,8.563-0.201c1.357-0.182,2.685-0.58,3.982-0.871c0.48-2.65-2.534-3.109-2.992-5.107
			c1.513-0.336,3.013-0.668,4.513-1.002"/>
		
			<path fill-rule="evenodd" clip-rule="evenodd" fill="none" stroke="#BABABA" stroke-width="3" stroke-linecap="round" stroke-linejoin="round" stroke-miterlimit="10" d="
			M640.638,138.981c0.926,5.617-0.506,7.773-6.002,8.992c-0.988,0.22-2.289,0-2.951,0.562c-4.344,3.701-9.299,3.885-14.553,2.979
			c-0.893-0.154-2.098-0.458-2.727,1.805c3.645,3.097,6.568,7.482,10.293,11.101c4.105,3.988,9.418,2.323,13.312,0.315
			c5.121-2.641,9.955-1.891,15.127-1.926c3.807-0.025,7.67-0.146,11.496-0.395c1.527-0.099,0.793-2.039,1.1-3.188
			c4.225,2.646,4.312,2.686,5.84-0.775c0.355-0.809,0.799-0.483,1.059-0.437c4.336,0.788,8.127-2.704,12.51-1.545
			c3.154,0.835,6.457,1.952,7.996-2.489c3.557,0.451,6.189-3.725,9.893-2.162c0.678,1.356-1.039,1.637-0.898,2.803
			c1.506,1.648,3.096,0.724,4.49-0.166c5.51-3.511,11.037-6.679,18.027-5.019c2.486,0.591,4.512-0.384,5.596-3.205
			c-2.609-2.245-5.586-3.649-9.1-4.293c-10.996-2.017-21.793-5.022-32.998-6.052c-6.088-0.561-18.982,1.169-24.016,4.082
			c-0.447,0.258-1.023,0.549-1.488,0.48c-5.145-0.766-9.143,2.233-13.506,4.027c-2.74,1.127-5.467,1.828-8-0.496"/>
		
			<path fill-rule="evenodd" clip-rule="evenodd" fill="none" stroke="#BABABA" stroke-width="3" stroke-linecap="round" stroke-linejoin="round" stroke-miterlimit="10" d="
			M703.638,62.481c0.334,0.333,0.631,0.716,1.006,0.993c6.1,4.491,12.648,7.384,20.5,6.043c2.105-0.359,3.947,0.757,4.936,2.498
			c1.514,2.669,3.896,3.22,7.148,3.046c-0.367,1.753,0.705,3.928-0.631,4.25c-3.043,0.733-2.537,4.702-5.459,5.167
			c-0.162,0.026-0.389,0.074-0.492-0.007c-3.869-3.036-8.441-2.914-13.002-3.105c-0.664-0.028-1.922-1.04-2.023-2.383
			c-0.09-1.162-0.877-2.13-1.973-1.948c-4.482,0.746-6.059-2.109-6.953-5.568c-0.537-2.071-2.174-2.812-3.523-4.021
			c-1.697-1.519-2.76-3.298-0.033-4.964"/>
		
			<path fill-rule="evenodd" clip-rule="evenodd" fill="none" stroke="#BABABA" stroke-width="3" stroke-linecap="round" stroke-linejoin="round" stroke-miterlimit="10" d="
			M123.639,215.481c1.13,2.66,3.164,4.115,6,4.5"/>
	</g>
	<g>
		<rect x="61.406" y="68.457" fill-rule="evenodd" clip-rule="evenodd" fill="none" width="564" height="137.94"/>
		<path fill="#FFFFFF" d="M120.426,85.681c-0.39,0.65-0.802,1.138-1.235,1.462c-0.434,0.325-0.998,0.488-1.69,0.488
			c-0.738,0-1.593-0.368-2.568-1.105c-0.975-0.736-2.21-1.549-3.705-2.438c-1.495-0.887-3.293-1.7-5.395-2.438
			c-2.103-0.736-4.648-1.105-7.638-1.105c-2.817,0-5.309,0.38-7.475,1.138c-2.167,0.759-3.976,1.788-5.427,3.087
			c-1.453,1.3-2.546,2.828-3.283,4.583c-0.737,1.755-1.105,3.651-1.105,5.688c0,2.6,0.639,4.756,1.917,6.468
			c1.278,1.712,2.968,3.175,5.07,4.387c2.102,1.214,4.485,2.265,7.15,3.153c2.665,0.889,5.395,1.81,8.19,2.762
			c2.795,0.954,5.525,2.026,8.19,3.218c2.665,1.192,5.047,2.697,7.15,4.517c2.102,1.82,3.792,4.053,5.07,6.695
			c1.278,2.645,1.917,5.895,1.917,9.75c0,4.074-0.693,7.897-2.08,11.473c-1.388,3.575-3.413,6.686-6.078,9.328
			c-2.665,2.644-5.938,4.724-9.815,6.239c-3.879,1.517-8.288,2.275-13.228,2.275c-6.024,0-11.516-1.094-16.478-3.282
			c-4.962-2.188-9.198-5.146-12.708-8.873l3.64-5.979c0.346-0.477,0.769-0.878,1.268-1.203c0.498-0.324,1.05-0.487,1.657-0.487
			c0.91,0,1.95,0.487,3.12,1.463c1.17,0.975,2.632,2.047,4.387,3.217c1.755,1.171,3.878,2.243,6.37,3.218
			c2.491,0.976,5.535,1.463,9.133,1.463c2.99,0,5.655-0.411,7.995-1.235c2.34-0.822,4.323-1.982,5.948-3.478s2.87-3.282,3.737-5.362
			c0.866-2.08,1.3-4.397,1.3-6.955c0-2.816-0.64-5.124-1.917-6.923c-1.279-1.797-2.958-3.304-5.038-4.517s-4.453-2.243-7.118-3.088
			c-2.665-0.845-5.395-1.711-8.19-2.6c-2.795-0.888-5.525-1.917-8.19-3.087s-5.038-2.687-7.118-4.55
			c-2.08-1.862-3.76-4.192-5.038-6.987c-1.278-2.795-1.917-6.25-1.917-10.368c0-3.292,0.639-6.478,1.917-9.555
			c1.278-3.077,3.13-5.807,5.558-8.19c2.426-2.383,5.428-4.29,9.002-5.72c3.575-1.43,7.68-2.145,12.318-2.145
			c5.2,0,9.945,0.824,14.235,2.47c4.29,1.647,8.038,4.03,11.245,7.15L120.426,85.681z"/>
		<path fill="#FFFFFF" d="M222.345,117.726c0,6.978-1.105,13.325-3.314,19.045c-2.211,5.72-5.33,10.617-9.36,14.69
			c-4.03,4.073-8.863,7.226-14.495,9.457c-5.634,2.232-11.874,3.348-18.72,3.348h-34.84V71.121h34.84
			c6.846,0,13.086,1.116,18.72,3.348c5.632,2.232,10.465,5.395,14.495,9.49c4.03,4.095,7.149,9.002,9.36,14.723
			C221.24,104.401,222.345,110.75,222.345,117.726z M209.411,117.726c0-5.72-0.78-10.833-2.34-15.34
			c-1.56-4.506-3.77-8.32-6.63-11.44c-2.86-3.12-6.327-5.503-10.4-7.15c-4.074-1.646-8.602-2.47-13.585-2.47h-22.165v72.735h22.165
			c4.983,0,9.511-0.822,13.585-2.47c4.073-1.646,7.54-4.019,10.4-7.118c2.86-3.098,5.07-6.899,6.63-11.407
			C208.631,128.56,209.411,123.446,209.411,117.726z"/>
		<path fill="#FFFFFF" d="M305.155,145.026c0.692,0,1.321,0.282,1.885,0.846l4.94,5.395c-3.813,4.42-8.44,7.865-13.878,10.335
			c-5.438,2.47-11.992,3.705-19.662,3.705c-6.718,0-12.805-1.159-18.265-3.478c-5.461-2.317-10.119-5.567-13.976-9.75
			c-3.857-4.182-6.848-9.197-8.97-15.048c-2.124-5.85-3.186-12.285-3.186-19.305s1.138-13.455,3.413-19.305
			c2.274-5.85,5.47-10.876,9.587-15.08c4.117-4.203,9.046-7.464,14.788-9.783c5.741-2.318,12.079-3.478,19.013-3.478
			c6.846,0,12.75,1.062,17.712,3.185c4.962,2.124,9.37,5.005,13.228,8.645l-4.095,5.785c-0.304,0.434-0.65,0.791-1.04,1.072
			c-0.39,0.282-0.954,0.422-1.69,0.422c-0.563,0-1.159-0.205-1.787-0.617c-0.629-0.412-1.376-0.92-2.242-1.528
			c-0.868-0.606-1.886-1.256-3.056-1.95c-1.17-0.693-2.557-1.343-4.16-1.95c-1.604-0.606-3.467-1.115-5.59-1.527
			c-2.123-0.411-4.572-0.618-7.345-0.618c-4.983,0-9.545,0.856-13.683,2.568c-4.139,1.712-7.702,4.149-10.692,7.312
			c-2.99,3.164-5.319,7.02-6.987,11.57c-1.669,4.55-2.503,9.642-2.503,15.275c0,5.808,0.834,10.985,2.503,15.535
			c1.668,4.55,3.942,8.396,6.825,11.537c2.881,3.143,6.294,5.536,10.237,7.183c3.942,1.647,8.189,2.47,12.74,2.47
			c2.772,0,5.265-0.162,7.475-0.487s4.258-0.834,6.143-1.527c1.885-0.692,3.64-1.57,5.265-2.633
			c1.625-1.061,3.261-2.328,4.908-3.802C303.747,145.351,304.461,145.026,305.155,145.026z"/>
		<path fill="#FFFFFF" d="M313.995,120.391h32.11v9.815h-32.11V120.391z"/>
		<path fill="#FFFFFF" d="M377.758,129.426v34.84h-12.545V71.121h27.495c5.893,0,11.017,0.683,15.372,2.047
			c4.354,1.365,7.963,3.305,10.822,5.818c2.86,2.514,4.994,5.547,6.402,9.1c1.408,3.554,2.113,7.519,2.113,11.895
			c0,4.334-0.759,8.299-2.275,11.895c-1.518,3.598-3.737,6.695-6.662,9.295c-2.926,2.6-6.556,4.626-10.888,6.078
			c-4.334,1.452-9.295,2.178-14.885,2.178H377.758z M377.758,119.416h14.95c3.596,0,6.77-0.476,9.522-1.43
			c2.751-0.953,5.059-2.285,6.922-3.998c1.863-1.711,3.271-3.759,4.226-6.143c0.952-2.383,1.43-5.005,1.43-7.865
			c0-5.936-1.831-10.572-5.492-13.91c-3.663-3.336-9.198-5.005-16.607-5.005h-14.95V119.416z"/>
		<path fill="#FFFFFF" d="M457.187,125.396v38.87h-12.545V71.121h26.324c5.894,0,10.985,0.596,15.275,1.788
			c4.29,1.192,7.833,2.915,10.628,5.167c2.795,2.253,4.863,4.973,6.207,8.157c1.343,3.185,2.015,6.75,2.015,10.693
			c0,3.293-0.52,6.37-1.56,9.23c-1.04,2.86-2.546,5.427-4.518,7.702c-1.973,2.275-4.377,4.215-7.215,5.818
			c-2.839,1.604-6.057,2.817-9.652,3.64c1.56,0.91,2.946,2.232,4.16,3.965l27.17,36.985h-11.181c-2.297,0-3.987-0.888-5.069-2.665
			l-24.181-33.28c-0.737-1.04-1.538-1.787-2.404-2.242c-0.868-0.455-2.168-0.683-3.9-0.683H457.187z M457.187,116.231h13.194
			c3.683,0,6.923-0.444,9.718-1.333c2.795-0.888,5.135-2.145,7.021-3.77c1.885-1.625,3.304-3.563,4.257-5.817
			c0.953-2.252,1.431-4.745,1.431-7.475c0-5.546-1.832-9.728-5.493-12.545c-3.662-2.816-9.111-4.225-16.348-4.225h-13.779V116.231z"
			/>
	</g>
	<g>
	</g>
	<g>
	</g>
	<g>
	</g>
	<g>
	</g>
	<g>
	</g>
	<g>
	</g>
</g>
</svg>
